<?xml version="1.0" encoding="iso-8859-1"?>
<!-- Uploaded to: SVG Repo, www.svgrepo.com, Generator: SVG Repo Mixer Tools -->
<svg fill="#000000" height="800px" width="800px" version="1.1" id="Layer_1" xmlns="http://www.w3.org/2000/svg" xmlns:xlink="http://www.w3.org/1999/xlink" 
	 viewBox="0 0 483 483" xml:space="preserve">
<g transform="translate(0 -540.36)">
	<g>
		<g>
			<path d="M412.1,610.86c-45.6-45.5-106.2-70.5-170.6-70.5c-64.8,0-125.5,25-171,70.5S0,717.06,0,781.86
				c0,64.4,25,124.9,70.5,170.6c45.6,45.7,106.3,70.9,171,70.9c64.2,0,124.8-25.2,170.6-70.9c45.7-45.7,70.9-106.3,70.9-170.6
				C483,717.16,457.8,656.46,412.1,610.86z M15,781.86c0-124.9,101.6-226.5,226.5-226.5c59.8,0,114.2,23.3,154.7,61.2l-320,320
				C38.3,896.06,15,841.66,15,781.86z M241.5,1008.36c-59.8,0-114.2-23.3-154.7-61.2l320-320c37.9,40.5,61.2,94.9,61.2,154.7
				C468,906.76,366.4,1008.36,241.5,1008.36z"/>
			<path d="M378.9,923.86l-40.8-39.7l4.7-74.9l-47.6-46.2l-47.3,48.7l10.8,10.5l36.9-37.9l16.9,16.5l-22.5,22.5l10.6,10.6l22.7-22.7
				l4.1,4l-4,64.7l-63.7,3l-40.9-40.9l-10.6,10.6l45.6,45.6l73.8-3.5l41,39.8c1.5,1.4,3.3,2.1,5.2,2.1c2,0,3.9-0.8,5.4-2.3
				C382,931.56,381.9,926.76,378.9,923.86L378.9,923.86z"/>
			<path d="M205.2,671.96L205.2,671.96l18.2-18.2c2.9-2.9,2.9-7.7,0-10.6c-2.9-2.9-7.7-2.9-10.6,0l-34.4,34.4l-43.4-44.3l10-9.9
				c3-2.9,3-7.7,0.1-10.6c-2.9-3-7.7-3-10.6-0.1l-78.4,77.2c-3,2.9-3,7.7-0.1,10.6c1.5,1.5,3.4,2.2,5.3,2.2c1.9,0,3.8-0.7,5.3-2.2
				l10.5-10.4l43.8,44.8l-33.4,33.4c-2.9,2.9-2.9,7.7,0,10.6c1.5,1.5,3.4,2.2,5.3,2.2c1.9,0,3.8-0.7,5.3-2.2l16.3-16.3l55,55
				l10.6-10.6l-55-55l69.5-69.5l20.6,21l-18.7,17.9l10.4,10.8l18.8-18l12.3,12.6l-37,38l10.8,10.5l47.2-48.5L205.2,671.96z
				 M131.6,724.46l-43.8-44.7l36.5-35.9l43.5,44.4L131.6,724.46z"/>
		</g>
	</g>
</g>
</svg>